PathFileType	4	(X/Y/Z)	C:/Users/beibeiliu/ov580/test_trc/User3\sequence.13_training_dense_left.trc
DataRate	CameraRate	NumFrames	NumMarkers	Units	OrigDataRate	OrigDataStartFrame	OrigNumFrames
120	120	23	19	mm	120	1	109
Frame#	Time	ThumbCMC			ThumbMCP			ThumbIP			ThumbTip			IndexMCP			IndexPIP			IndexTip			MiddleMCP			MiddlePIP			MiddleTip			RingMCP			RingPIP			RingTip			PinkyMCP			PinkyPIP			PinkyTip			BackHand1			BackHand2			BackHand3	
		X0	Y0	Z0	X1	Y1	Z1	X2	Y2	Z2	X3	Y3	Z3	X4	Y4	Z4	X5	Y5	Z5	X6	Y6	Z6	X7	Y7	Z7	X8	Y8	Z8	X9	Y9	Z9	X10	Y10	Z10	X11	Y11	Z11	X12	Y12	Z12	X13	Y13	Z13	X14	Y14	Z14	X15	Y15	Z15	X16	Y16	Z16	X17	Y17	Z17	X18	Y18	Z18	
0	0	-236.056	-34.0712	6.2771	-225.508	-10.8736	-19.8201	-209.626	2.85747	-45.0559	-178.943	-0.950431	-55.9201	-213.097	-63.0768	-63.17	-209.481	-56.1736	-89.6769	-200.298	-45.5174	-117.518	-190.062	-59.9312	-65.7489	-177.152	-31.3464	-78.5494	-176.995	-9.27021	-45.7627	-177.482	-74.1025	-55.87	-167.925	-70.875	-77.9651	-154.483	-56.0416	-99.4364	-158.252	-79.2587	-29.5944	-148.219	-84.0002	-46.7161	-138.054	-83.8657	-71.1752	-191.114	-84.5785	-5.67795	-196.835	-84.7467	28.6833	-223.665	-75.1447	2.69149	
1	0.00833333	-243.815	-47.9868	9.20699	-240.515	-29.5118	-21.2701	-226.82	-23.1461	-46.7467	-202.601	-23.39	-64.1524	-232.153	-86.8375	-57.0432	-231.282	-84.3829	-86.908	-227.102	-77.2791	-113.554	-211.477	-83.0791	-64.8639	-203.646	-60.0928	-82.6914	-197.047	-29.9903	-54.8937	-192.061	-96.5756	-50.1108	-190.995	-94.4221	-76.5872	-180.745	-81.2819	-106.082	-175.167	-92.3153	-26.7446	-163.358	-104.114	-51.4045	-155.572	-106.822	-70.698	-198.901	-96.2719	3.89336	-202.581	-93.6556	32.0483	-232.945	-87.261	10.1845	
2	0.0166667	-252.849	-59.2967	15.7325	-253.147	-46.4076	-15.6633	-246.224	-42.1034	-50.9669	-228.121	-43.872	-64.9064	-254.822	-107.509	-50.7399	-253.335	-109.215	-74.5009	-257.455	-105.7	-100.706	-229.003	-107.061	-54.7338	-226.334	-85.041	-80.0071	-220.159	-50.8722	-62.3203	-213.893	-114.174	-42.6042	-211.158	-116.718	-75.243	-205.284	-108.549	-101.843	-187.895	-110.217	-24.8419	-179.818	-121.403	-47.3172	-176.022	-124.692	-69.8464	-207.964	-109.286	9.15052	-208.511	-100.173	36.3046	-239.753	-98.0871	21.723	
3	0.025	-264.213	-71.0758	16.7035	-263.755	-61.3606	-13.4322	-261.809	-58.0382	-44.4775	-247.891	-58.4307	-63.6305	-264.329	-123.844	-39.9537	-272.244	-127.539	-67.4127	-269.298	-126.388	-89.105	-243.926	-122.536	-45.3899	-242.225	-102.259	-75.2118	-234.293	-67.8292	-62.4949	-226.038	-129.039	-38.5201	-224.708	-133.564	-67.1922	-224.941	-129.107	-91.2081	-202.09	-119.201	-21.7129	-195.79	-134.777	-42.8566	-189.055	-141.466	-65.4895	-216.601	-118.45	11.2583	-209.35	-108.413	39.3785	-247.433	-108.91	26.6559	
4	0.0333333	-264.87	-77.7056	24.745	-271.554	-69.6133	-11.0517	-273.121	-64.7436	-40.2114	-257.814	-67.2859	-63.4734	-272.603	-131.902	-30.3337	-277.339	-137.338	-55.9175	-282.188	-137.033	-82.1195	-252.517	-132.442	-45.3273	-252.568	-110.476	-71.0212	-246.597	-77.5983	-63.2231	-226.527	-135.686	-34.5009	-232.661	-141.799	-64.025	-231.154	-136.197	-91.3362	-201.768	-127.322	-20.3935	-202.31	-139.704	-38.8971	-195.212	-148.222	-62.6644	-219.378	-125.163	16.1345	-217.853	-113.316	42.0008	-249.724	-114.447	30.8521	
5	0.0416667	-267.322	-81.6926	23.4364	-273.02	-72.0819	-7.47462	-273.091	-70.0509	-39.7872	-259.087	-69.881	-61.8565	-274.815	-133.173	-27.1299	-276.388	-139.038	-58.2501	-283.212	-137.518	-80.3177	-250.122	-134.451	-42.395	-254.658	-117.162	-69.1112	-246.126	-81.0816	-63.1753	-227.571	-137.672	-32.7007	-231.155	-143.284	-62.2592	-231.193	-138.535	-86.69	-205.801	-129.136	-17.886	-203.619	-140.413	-35.6398	-196.998	-147.588	-60.8667	-223.352	-124.568	21.1521	-216.199	-113.669	44.9072	-253.926	-115.424	34.5056	
6	0.05	-269.687	-80.3042	24.2215	-274.36	-69.0853	-8.39808	-270.399	-64.6582	-35.0579	-255.718	-67.0912	-57.3248	-270.066	-132.587	-33.5441	-277.971	-134.076	-56.0767	-278.457	-131.484	-82.8984	-247.802	-132.476	-43.6325	-253.058	-117.136	-68.8666	-246.296	-76.52	-64.8982	-230.915	-134.451	-30.4264	-230.579	-140.559	-59.7116	-233.379	-135.462	-90.5702	-202.858	-127.62	-18.2484	-200.427	-140.656	-40.9626	-196.365	-146.359	-62.3881	-224.096	-121.898	20.4745	-214.765	-113.372	46.6332	-250.744	-116.432	35.7987	
7	0.0583333	-268.272	-75.5531	27.9414	-271.75	-63.7615	-6.02765	-270.35	-60.4459	-40.0713	-252.442	-61.1217	-60.0448	-269.116	-126.959	-35.0583	-275.508	-126.118	-64.3219	-273.512	-122.038	-86.5103	-247.411	-127.06	-45.038	-248.833	-110.823	-70.5991	-245.951	-68.7075	-64.8782	-229.606	-130.732	-32.9399	-225.842	-135.162	-61.9773	-227.169	-129.445	-88.5532	-202.063	-126.254	-19.7357	-199.848	-135.02	-38.3921	-195.349	-141.267	-66.2454	-218.231	-120.268	19.2998	-215.158	-112.288	44.3905	-253.636	-114.473	33.9756	
8	0.0666667	-266.644	-72.0819	24.0822	-268.231	-61.1307	-9.09601	-264.4	-57.5579	-37.536	-245.423	-60.572	-59.308	-268.187	-120.991	-34.7415	-272.331	-120.086	-67.4249	-275.292	-110.296	-92.8627	-246.564	-122.978	-42.8161	-243.566	-103.841	-73.4919	-241.247	-67.185	-69.0705	-227.095	-128.303	-35.0201	-225.227	-132.118	-62.0412	-228.516	-124.492	-91.4949	-201.078	-119.391	-16.9809	-198.943	-131.184	-37.6618	-192.881	-137.33	-64.3993	-221.231	-117.06	17.0539	-214.701	-108.042	46.3461	-251.683	-108.637	32.5025	
9	0.075	-265.185	-68.4809	25.917	-270.135	-54.0311	-9.78224	-266.216	-49.3802	-37.8581	-244.92	-53.7072	-55.5366	-271.117	-116.012	-36.4498	-272.045	-116.792	-63.2211	-273.254	-107.894	-90.9966	-249.283	-119.588	-45.2632	-248.229	-103.571	-74.0952	-241.468	-66.8837	-75.2072	-231.937	-125.348	-35.6898	-225.259	-129.59	-60.5681	-226.378	-120.438	-89.8608	-207.114	-115.991	-16.706	-198.973	-129.63	-39.9631	-195.422	-133.369	-63.4223	-220.938	-115.719	17.8541	-218.234	-108.99	43.3141	-254.911	-105.41	33.0339	
10	0.0833333	-266.94	-61.927	23.1022	-264.838	-46.9984	-8.93086	-257.638	-42.0476	-38.929	-238.525	-46.3399	-59.419	-272.601	-108.717	-38.3084	-279.063	-108.312	-64.8718	-276.399	-100.867	-93.7914	-251.732	-115.955	-46.9419	-250.025	-104.403	-74.4027	-237.092	-71.9581	-86.4118	-227.834	-120.114	-35.4929	-227.096	-123.358	-62.0499	-225.772	-113.893	-92.1355	-210.071	-114.2	-17.5597	-203.048	-127.348	-40.1513	-197.893	-129.389	-63.7406	-225.749	-113.202	17.8073	-223.526	-106.66	41.9384	-257.246	-101.836	30.9909	
11	0.0916667	-259.535	-52.5137	23.5833	-255.554	-34.0021	-10.387	-244.967	-30.7165	-39.5979	-225.725	-39.9762	-55.9766	-278.292	-96.6988	-40.6084	-283.311	-96.2798	-69.0295	-280.656	-92.0206	-92.3344	-257.406	-109.602	-44.5362	-253.195	-105.391	-77.3478	-239.591	-80.8937	-102.341	-233.393	-114.482	-35.3229	-232.606	-116.37	-62.9725	-223.142	-110.82	-89.3914	-217.35	-117.055	-22.6715	-211.152	-124.55	-40.1828	-200.971	-128.786	-66.737	-234.406	-112.576	15.7775	-229.272	-106.303	43.8408	-264.224	-90.6575	26.4459	
12	0.1	-248.058	-42.421	17.1839	-230.939	-31.8179	-11.1915	-217.616	-27.3211	-40.3784	-202.739	-40.0739	-59.0486	-277.446	-75.5164	-45.2745	-281.046	-72.737	-71.502	-276.801	-71.5528	-94.4517	-264.382	-95.0679	-47.9897	-258.995	-96.0006	-79.0561	-245.67	-88.5003	-105.536	-240.226	-109.994	-37.7102	-237.851	-108.825	-67.1881	-224.299	-106.074	-90.5287	-224.144	-116.167	-19.7795	-221.971	-123.994	-41.0219	-215.503	-128.18	-69.0226	-246.909	-101.713	12.9308	-241.112	-97.9155	45.336	-264.017	-75.184	26.2817	
13	0.108333	-226.024	-31.8107	19.8382	-205.956	-30.9047	-13.8944	-193.486	-38.8812	-41.4527	-184.151	-56.8507	-58.212	-264.312	-55.7799	-43.8725	-265.244	-51.9971	-70.7206	-258.321	-52.0021	-99.7355	-264.957	-77.3854	-49.9144	-259.981	-77.7545	-78.6989	-246.194	-77.848	-105.376	-250.667	-96.6506	-39.8759	-244.167	-100.623	-63.0598	-227.36	-101.02	-86.8896	-242.893	-108.741	-23.5191	-238.98	-118.368	-46.6108	-233.531	-120.757	-68.6289	-254.399	-88.4784	13.7387	-251.291	-86.1597	44.1048	-259.987	-55.412	27.9961	
14	0.116667	-204.619	-29.9812	20.7407	-185.874	-38.3363	-8.78314	-177.148	-51.1595	-37.4491	-178.454	-70.8683	-54.2718	-248.261	-37.8394	-45.6785	-244.803	-36.7221	-71.4757	-235.073	-39.5234	-97.2823	-256.744	-54.9523	-45.4023	-252.148	-57.9765	-76.0603	-234.21	-69.0194	-106.653	-253.277	-78.4563	-37.7655	-245.5	-86.2756	-64.4366	-225.177	-92.1471	-81.72	-253.738	-97.8786	-21.3355	-254.4	-103.744	-40.9522	-247.483	-110.451	-69.3857	-256.123	-73.969	19.2626	-248.392	-70.0257	44.7138	-245.438	-40.1848	27.1376	
15	0.125	-191.138	-33.0187	21.8298	-178.131	-45.377	-10.5758	-175.36	-59.4993	-41.1986	-177.429	-77.0803	-54.147	-235.047	-25.7239	-41.9047	-229.933	-24.5861	-70.5018	-221.47	-35.9926	-97.5342	-250.884	-44.837	-41.804	-243.478	-46.8058	-76.9931	-226.828	-60.531	-100.39	-251.042	-66.8639	-34.4171	-241.734	-74.1657	-61.7166	-217.834	-89.2331	-74.8758	-256.077	-85.8295	-18.1197	-257.619	-88.5802	-40.9462	-251.78	-95.0841	-66.7255	-250.402	-60.6471	18.0674	-243.082	-61.2625	47.7452	-233.954	-29.7131	27.4061	
16	0.133333	-186.494	-33.3277	22.8805	-176.678	-47.134	-14.7889	-176.91	-61.546	-39.3364	-185.93	-79.993	-57.7417	-232.279	-23.3827	-38.4237	-227.832	-26.033	-71.0461	-218.354	-32.7059	-93.7596	-248.358	-43.0279	-39.2118	-243.71	-47.3227	-73.3664	-223.729	-61.277	-96.6863	-246.467	-61.2608	-35.4617	-237.228	-75.1778	-62.008	-208.07	-90.1866	-69.6856	-254.646	-80.3052	-18.5599	-257.936	-84.1539	-39.5701	-252.167	-90.4981	-63.7198	-247.141	-58.4049	23.908	-240.7	-57.9049	47.7448	-230.16	-29.8689	28.761	
17	0.141667	-186.745	-33.0521	19.9696	-176.839	-48.5021	-10.8345	-177.599	-63.1982	-38.867	-185.404	-81.2674	-57.9066	-232.144	-21.2004	-37.6947	-229.678	-26.0448	-70.2878	-219.96	-32.09	-92.471	-249.188	-42.6975	-43.4003	-242.196	-46.4468	-72.0114	-220.054	-65.5484	-97.3044	-248.267	-65.4861	-35.2502	-237.136	-76.4672	-59.5452	-204.821	-86.0922	-65.0293	-252.758	-79.6818	-15.4131	-258.116	-85.9543	-41.5566	-253.309	-90.8153	-61.5141	-247.535	-57.3612	22.0349	-240.363	-61.5385	48.3552	-229.929	-32.3928	31.2444	
18	0.15	-188.024	-33.2501	18.3083	-178.341	-49.3658	-10.2583	-178.076	-65.3	-42.8381	-187.018	-82.722	-54.7439	-233.637	-24.3324	-37.2303	-231.136	-24.2693	-68.4334	-223.557	-33.7539	-92.9774	-248.674	-43.5325	-40.6921	-241.743	-52.2738	-74.8653	-223.12	-64.1912	-94.7575	-247.515	-67.2439	-33.1904	-233.644	-80.9983	-59.8717	-201.021	-90.8922	-63.5484	-252.309	-82.8817	-15.858	-256.077	-85.3972	-42.1471	-252.74	-90.1006	-62.2496	-246.133	-58.9115	23.5174	-240.12	-62.8218	51.7372	-228.876	-35.4138	31.6473	
19	0.158333	-188.32	-35.638	19.9298	-174.428	-47.9283	-13.0101	-175.168	-63.7112	-40.0175	-180.788	-82.1038	-57.4321	-235.829	-26.4891	-42.0117	-231.515	-25.0709	-66.1646	-223.004	-32.5615	-93.1649	-247.198	-45.9067	-45.114	-237.269	-48.4639	-73.6738	-219.14	-63.7956	-96.2532	-244.803	-71.4177	-37.8809	-230.558	-79.2609	-58.9009	-197.875	-90.6975	-64.1135	-250.759	-86.2194	-15.3009	-255.038	-90.272	-39.3968	-250.939	-96.0876	-63.4812	-248.354	-60.298	21.1131	-235.357	-64.0935	51.3799	-226.646	-31.0833	31.6497	
20	0.166667	-187.778	-35.2152	22.6295	-174.266	-46.563	-14.8025	-173.159	-61.8826	-42.6733	-178.236	-81.7803	-58.6943	-233.449	-26.83	-38.1782	-230.404	-27.3585	-70.5003	-221.296	-32.1157	-96.0751	-244.147	-49.424	-43.2836	-234.302	-48.7809	-73.5698	-214.199	-62.6706	-99.342	-240.269	-71.9367	-36.1217	-222.307	-82.9465	-62.1773	-194.237	-88.7018	-65.2383	-246.794	-87.4392	-17.9756	-250.154	-92.5443	-41.0313	-248.292	-95.0805	-64.3959	-244.072	-63.1859	19.9944	-235.684	-64.7584	46.6987	-229.73	-35.2135	28.0919	
21	0.175	-188.609	-32.6571	18.3091	-172.41	-44.6658	-10.0835	-169.485	-59.9324	-40.9646	-172.702	-78.608	-53.5729	-231.622	-28.1203	-42.5685	-227.128	-25.3524	-69.7188	-219.71	-29.5137	-94.2997	-240.035	-46.8142	-48.7675	-230.498	-53.2739	-77.0345	-211.341	-61.2713	-100.116	-236.105	-72.9561	-36.9877	-217.042	-81.8191	-62.8275	-189.358	-90.5686	-66.408	-243.39	-88.0583	-22.7708	-245.77	-93.1662	-45.7804	-244.961	-99.5414	-64.7128	-243.32	-64.7229	17.43	-234.088	-67.6723	48.4413	-228.183	-36.1631	28.2168	
22	0.183333	-188.008	-33.8691	19.5366	-175.081	-47.0152	-14.9281	-169.255	-61.8634	-42.6251	-172.115	-83.1185	-58.8485	-231.078	-29.3478	-41.0819	-227.333	-30.208	-70.619	-219.149	-34.8179	-94.2079	-238.628	-51.8841	-48.0327	-231.325	-59.6297	-74.2546	-207.79	-68.853	-102.934	-232.574	-74.0296	-36.9976	-215.983	-86.7678	-61.4887	-185.736	-89.6037	-66.9398	-241.084	-94.7563	-22.1406	-242.166	-100.171	-46.0633	-243.234	-106.998	-65.2028	-243.726	-70.5995	17.3192	-235.629	-69.7115	49.0359	-229.792	-37.0253	27.3395	
